<svg xmlns="http://www.w3.org/2000/svg" width="79" height="79" viewBox="0 0 79 79"><g><g opacity=".5"><path fill="#f5c506" d="M.174 20.287l18.78-.713L18.83.779l8.018 7.669.127 18.794-18.781.713zm12.17 11.638l18.78-.713L31 12.418l8.019 7.668.126 18.795-18.781.712zm39.808 38.069l-.127-18.795 18.782-.713 8.02 7.669-18.782.713.126 18.794zm-12.17-11.639l-.127-18.794 18.782-.713 8.019 7.668-18.781.714L48 66.024zM58.434-.105l.713 18.78 18.794-.126-7.668 8.02-18.795.125-.712-18.78zm-11.638 12.17l.713 18.78 18.794-.126-7.668 8.02-18.795.126-.713-18.782zM8.727 51.873l18.794-.127.713 18.782-7.668 8.019-.714-18.781-18.793.126zm11.638-12.17l18.794-.127.714 18.782-7.669 8.019-.714-18.782-18.793.127z"/></g></g></svg>